# xmcd
#
# Track frame offsets: 
#        150
#        22305
#        45218
#        59805
#        74954
#        89823
#        115211
#        129929
#        145715
#        158250
#
# Disc length: 2366 seconds
#
# Revision: 0
# Processed by: cddbd v1.5.2PL0 Copyright (c) Steve Scherf et al.
# Submitted via: ExactAudioCopy v0.99pb4
#
DISCID=90093c0a
DTITLE=Gillian Welch - Soul Journey
DYEAR=2003
DGENRE=Country
TTITLE0=Look At Miss Ohio
TTITLE1=Make Me Down A Pallet On Your Floor
TTITLE2=Wayside/Back In Time
TTITLE3=I Had A Real Good Mother and Father
TTITLE4=One Monkey
TTITLE5=No One Knows My Name
TTITLE6=Lowlands
TTITLE7=One Little Song
TTITLE8=I Made A Lovers Prayer
TTITLE9=Wrecking Ball
EXTD=
EXTT0=
EXTT1=
EXTT2=
EXTT3=
EXTT4=
EXTT5=
EXTT6=
EXTT7=
EXTT8=
EXTT9=
PLAYORDER=
